<mxfile host="app.diagrams.net" agent="Mozilla/5.0 (X11; Linux x86_64) AppleWebKit/537.36 (KHTML, like Gecko) Chrome/129.0.0.0 Safari/537.36" version="24.8.3">
  <diagram name="Page-1" id="xhPOrnU5R84kCTwA-PkH">
    <mxGraphModel dx="1958" dy="852" grid="1" gridSize="10" guides="1" tooltips="1" connect="1" arrows="1" fold="1" page="1" pageScale="1" pageWidth="850" pageHeight="1100" math="0" shadow="0">
      <root>
        <mxCell id="0" />
        <mxCell id="1" parent="0" />
        <mxCell id="3lir86pCsA9V2eyxsYEI-13" value="REF..value =" style="rounded=0;whiteSpace=wrap;html=1;sketch=1;hachureGap=4;jiggle=2;curveFitting=1;fontFamily=Architects Daughter;fontSource=https%3A%2F%2Ffonts.googleapis.com%2Fcss%3Ffamily%3DArchitects%2BDaughter;align=left;verticalAlign=top;" vertex="1" parent="1">
          <mxGeometry x="460" y="300" width="360" height="190" as="geometry" />
        </mxCell>
        <mxCell id="3lir86pCsA9V2eyxsYEI-2" value="PROXY" style="rounded=0;whiteSpace=wrap;html=1;sketch=1;hachureGap=4;jiggle=2;curveFitting=1;fontFamily=Architects Daughter;fontSource=https%3A%2F%2Ffonts.googleapis.com%2Fcss%3Ffamily%3DArchitects%2BDaughter;fillColor=#dae8fc;strokeColor=#6c8ebf;align=left;verticalAlign=top;" vertex="1" parent="1">
          <mxGeometry x="470" y="105" width="300" height="150" as="geometry" />
        </mxCell>
        <mxCell id="3lir86pCsA9V2eyxsYEI-1" value="&lt;pre&gt;{&lt;br&gt;&amp;nbsp; user: &quot;frank&quot;,&lt;br&gt;  age: 10,&lt;br&gt;}&lt;/pre&gt;" style="rounded=0;whiteSpace=wrap;html=1;sketch=1;hachureGap=4;jiggle=2;curveFitting=1;fontFamily=Architects Daughter;fontSource=https%3A%2F%2Ffonts.googleapis.com%2Fcss%3Ffamily%3DArchitects%2BDaughter;align=left;fillColor=#fff2cc;strokeColor=#d6b656;" vertex="1" parent="1">
          <mxGeometry x="515" y="145" width="210" height="80" as="geometry" />
        </mxCell>
        <mxCell id="3lir86pCsA9V2eyxsYEI-4" value="&lt;pre&gt;{&lt;br&gt;&amp;nbsp; user: &quot;frank&quot;,&lt;br&gt;  age: 10,&lt;br&gt;}&lt;/pre&gt;" style="rounded=0;whiteSpace=wrap;html=1;sketch=1;hachureGap=4;jiggle=2;curveFitting=1;fontFamily=Architects Daughter;fontSource=https%3A%2F%2Ffonts.googleapis.com%2Fcss%3Ffamily%3DArchitects%2BDaughter;align=left;fillColor=#fff2cc;strokeColor=#d6b656;" vertex="1" parent="1">
          <mxGeometry x="120" y="140" width="210" height="80" as="geometry" />
        </mxCell>
        <mxCell id="3lir86pCsA9V2eyxsYEI-6" value="" style="shape=flexArrow;endArrow=classic;html=1;rounded=0;sketch=1;hachureGap=4;jiggle=2;curveFitting=1;fontFamily=Architects Daughter;fontSource=https%3A%2F%2Ffonts.googleapis.com%2Fcss%3Ffamily%3DArchitects%2BDaughter;" edge="1" parent="1">
          <mxGeometry width="50" height="50" relative="1" as="geometry">
            <mxPoint x="350" y="180" as="sourcePoint" />
            <mxPoint x="450" y="180" as="targetPoint" />
          </mxGeometry>
        </mxCell>
        <mxCell id="3lir86pCsA9V2eyxsYEI-7" value="reactive()" style="text;html=1;align=center;verticalAlign=middle;resizable=0;points=[];autosize=1;strokeColor=none;fillColor=none;fontFamily=Architects Daughter;fontSource=https%3A%2F%2Ffonts.googleapis.com%2Fcss%3Ffamily%3DArchitects%2BDaughter;" vertex="1" parent="1">
          <mxGeometry x="350" y="148" width="80" height="30" as="geometry" />
        </mxCell>
        <mxCell id="3lir86pCsA9V2eyxsYEI-8" value="PROXY" style="rounded=0;whiteSpace=wrap;html=1;sketch=1;hachureGap=4;jiggle=2;curveFitting=1;fontFamily=Architects Daughter;fontSource=https%3A%2F%2Ffonts.googleapis.com%2Fcss%3Ffamily%3DArchitects%2BDaughter;fillColor=#dae8fc;strokeColor=#6c8ebf;align=left;verticalAlign=top;" vertex="1" parent="1">
          <mxGeometry x="490" y="328" width="300" height="150" as="geometry" />
        </mxCell>
        <mxCell id="3lir86pCsA9V2eyxsYEI-9" value="&lt;pre&gt;{&lt;br&gt;&amp;nbsp; user: &quot;frank&quot;,&lt;br&gt;  age: 10,&lt;br&gt;}&lt;/pre&gt;" style="rounded=0;whiteSpace=wrap;html=1;sketch=1;hachureGap=4;jiggle=2;curveFitting=1;fontFamily=Architects Daughter;fontSource=https%3A%2F%2Ffonts.googleapis.com%2Fcss%3Ffamily%3DArchitects%2BDaughter;align=left;fillColor=#fff2cc;strokeColor=#d6b656;" vertex="1" parent="1">
          <mxGeometry x="535" y="368" width="210" height="80" as="geometry" />
        </mxCell>
        <mxCell id="3lir86pCsA9V2eyxsYEI-10" value="&lt;pre&gt;{&lt;br&gt;&amp;nbsp; user: &quot;frank&quot;,&lt;br&gt;  age: 10,&lt;br&gt;}&lt;/pre&gt;" style="rounded=0;whiteSpace=wrap;html=1;sketch=1;hachureGap=4;jiggle=2;curveFitting=1;fontFamily=Architects Daughter;fontSource=https%3A%2F%2Ffonts.googleapis.com%2Fcss%3Ffamily%3DArchitects%2BDaughter;align=left;fillColor=#fff2cc;strokeColor=#d6b656;" vertex="1" parent="1">
          <mxGeometry x="110" y="355" width="210" height="80" as="geometry" />
        </mxCell>
        <mxCell id="3lir86pCsA9V2eyxsYEI-11" value="" style="shape=flexArrow;endArrow=classic;html=1;rounded=0;sketch=1;hachureGap=4;jiggle=2;curveFitting=1;fontFamily=Architects Daughter;fontSource=https%3A%2F%2Ffonts.googleapis.com%2Fcss%3Ffamily%3DArchitects%2BDaughter;" edge="1" parent="1">
          <mxGeometry width="50" height="50" relative="1" as="geometry">
            <mxPoint x="340" y="395" as="sourcePoint" />
            <mxPoint x="440" y="395" as="targetPoint" />
          </mxGeometry>
        </mxCell>
        <mxCell id="3lir86pCsA9V2eyxsYEI-12" value="ref()" style="text;html=1;align=center;verticalAlign=middle;resizable=0;points=[];autosize=1;strokeColor=none;fillColor=none;fontFamily=Architects Daughter;fontSource=https%3A%2F%2Ffonts.googleapis.com%2Fcss%3Ffamily%3DArchitects%2BDaughter;" vertex="1" parent="1">
          <mxGeometry x="355" y="363" width="50" height="30" as="geometry" />
        </mxCell>
      </root>
    </mxGraphModel>
  </diagram>
</mxfile>
